<svg width="367" height="648" viewBox="0 0 367 648" fill="none" xmlns="http://www.w3.org/2000/svg">
<mask id="mask0_3921_150" style="mask-type:alpha" maskUnits="userSpaceOnUse" x="0" y="0" width="367" height="648">
<rect width="367" height="648" fill="#D9D9D9"/>
</mask>
<g mask="url(#mask0_3921_150)">
<mask id="mask1_3921_150" style="mask-type:alpha" maskUnits="userSpaceOnUse" x="41" y="-1" width="651" height="650">
<mask id="path-2-outside-1_3921_150" maskUnits="userSpaceOnUse" x="40.7109" y="-1" width="651" height="650" fill="black">
<rect fill="white" x="40.7109" y="-1" width="651" height="650"/>
<path d="M366.641 161.561L387.068 0L386.909 162.837L427.445 5.10362L407.017 166.665L467.024 15.1514L426.488 173.045L505.007 30.1432L444.841 181.657L540.756 49.7603L462.077 192.662L573.632 73.843L477.876 205.58L603.475 101.753L491.761 220.413L629.489 133.173L503.73 236.999L651.353 167.622L513.625 254.862L668.749 204.464L521.126 273.841L681.356 243.219L526.233 293.618L689.017 283.251L528.786 313.713L691.57 323.92L528.786 334.128L689.017 364.59L526.233 354.383L681.356 404.621L521.126 374.159L668.749 443.536L513.625 393.138L651.353 480.378L503.73 411.001L629.489 514.828L491.761 427.428L603.475 546.247L477.876 442.26L573.632 574.157L462.077 455.338L540.756 598.08L444.841 466.184L505.007 617.697L426.488 474.955L467.024 632.689L407.017 481.176L427.445 642.896L386.909 485.003L387.068 648L366.641 486.279L346.213 648L346.213 485.003L305.676 642.896L326.264 481.176L266.257 632.689L306.794 474.955L228.274 617.697L288.44 466.184L192.526 598.08L271.205 455.338L159.49 574.157L255.405 442.26L129.806 546.247L241.52 427.428L103.792 514.828L229.551 411.001L81.9282 480.378L219.656 393.138L64.5326 443.536L212.155 374.159L51.9248 404.621L207.048 354.383L44.2644 364.59L204.495 334.128L41.7109 323.92L204.495 313.713L44.2644 283.251L207.048 293.618L51.9248 243.219L212.155 273.841L64.5326 204.464L219.656 254.862L81.9282 167.622L229.551 236.999L103.792 133.173L241.52 220.413L129.806 101.753L255.405 205.58L159.49 73.843L271.205 192.662L192.526 49.7603L288.44 181.657L228.274 30.1432L306.794 173.045L266.257 15.1514L326.264 166.665L305.676 5.10362L346.213 162.837V0L366.641 161.561Z"/>
</mask>
<path d="M366.641 161.561L387.068 0L386.909 162.837L427.445 5.10362L407.017 166.665L467.024 15.1514L426.488 173.045L505.007 30.1432L444.841 181.657L540.756 49.7603L462.077 192.662L573.632 73.843L477.876 205.58L603.475 101.753L491.761 220.413L629.489 133.173L503.73 236.999L651.353 167.622L513.625 254.862L668.749 204.464L521.126 273.841L681.356 243.219L526.233 293.618L689.017 283.251L528.786 313.713L691.57 323.92L528.786 334.128L689.017 364.59L526.233 354.383L681.356 404.621L521.126 374.159L668.749 443.536L513.625 393.138L651.353 480.378L503.73 411.001L629.489 514.828L491.761 427.428L603.475 546.247L477.876 442.26L573.632 574.157L462.077 455.338L540.756 598.08L444.841 466.184L505.007 617.697L426.488 474.955L467.024 632.689L407.017 481.176L427.445 642.896L386.909 485.003L387.068 648L366.641 486.279L346.213 648L346.213 485.003L305.676 642.896L326.264 481.176L266.257 632.689L306.794 474.955L228.274 617.697L288.44 466.184L192.526 598.08L271.205 455.338L159.49 574.157L255.405 442.26L129.806 546.247L241.52 427.428L103.792 514.828L229.551 411.001L81.9282 480.378L219.656 393.138L64.5326 443.536L212.155 374.159L51.9248 404.621L207.048 354.383L44.2644 364.59L204.495 334.128L41.7109 323.92L204.495 313.713L44.2644 283.251L207.048 293.618L51.9248 243.219L212.155 273.841L64.5326 204.464L219.656 254.862L81.9282 167.622L229.551 236.999L103.792 133.173L241.52 220.413L129.806 101.753L255.405 205.58L159.49 73.843L271.205 192.662L192.526 49.7603L288.44 181.657L228.274 30.1432L306.794 173.045L266.257 15.1514L326.264 166.665L305.676 5.10362L346.213 162.837V0L366.641 161.561Z" stroke="black" stroke-width="2" stroke-miterlimit="10" mask="url(#path-2-outside-1_3921_150)"/>
</mask>
<g mask="url(#mask1_3921_150)">
<rect x="-785.721" y="-38.1172" width="1152.83" height="702.852" rx="45" fill="black"/>
</g>
<path d="M95.7147 470.096L141.422 495L95.7147 520.104L70.7109 565.71L45.7072 520.104L0.000260592 495L45.7072 470.096L70.7109 424.289L95.7147 470.096Z" fill="#B9FF66"/>
<path d="M217.102 243.565L298.777 288.066L217.102 332.925L172.422 414.422L127.742 332.925L46.0666 288.066L127.742 243.565L172.422 161.711L217.102 243.565Z" fill="#191A23"/>
</g>
</svg>
