<svg width="1440" height="773" viewBox="0 0 1440 773" fill="none" xmlns="http://www.w3.org/2000/svg">
<rect x="100" width="1240" height="773" rx="45" fill="#F3F3F3"/>
<path d="M247.634 80.252C246.722 80.252 245.906 80.09 245.186 79.766C244.466 79.442 243.896 78.956 243.476 78.308C243.068 77.648 242.864 76.826 242.864 75.842V75.464H244.358V75.842C244.358 76.886 244.664 77.666 245.276 78.182C245.888 78.686 246.674 78.938 247.634 78.938C248.618 78.938 249.368 78.716 249.884 78.272C250.4 77.828 250.658 77.27 250.658 76.598C250.658 76.13 250.538 75.758 250.298 75.482C250.07 75.206 249.746 74.984 249.326 74.816C248.906 74.636 248.414 74.48 247.85 74.348L246.914 74.114C246.182 73.922 245.534 73.688 244.97 73.412C244.406 73.136 243.962 72.776 243.638 72.332C243.326 71.876 243.17 71.294 243.17 70.586C243.17 69.878 243.344 69.266 243.692 68.75C244.052 68.234 244.55 67.838 245.186 67.562C245.834 67.286 246.578 67.148 247.418 67.148C248.27 67.148 249.032 67.298 249.704 67.598C250.388 67.886 250.922 68.318 251.306 68.894C251.702 69.458 251.9 70.172 251.9 71.036V71.792H250.406V71.036C250.406 70.424 250.274 69.932 250.01 69.56C249.758 69.188 249.404 68.912 248.948 68.732C248.504 68.552 247.994 68.462 247.418 68.462C246.59 68.462 245.924 68.648 245.42 69.02C244.916 69.38 244.664 69.896 244.664 70.568C244.664 71.012 244.772 71.372 244.988 71.648C245.204 71.924 245.51 72.152 245.906 72.332C246.302 72.5 246.776 72.65 247.328 72.782L248.264 73.016C248.996 73.172 249.65 73.388 250.226 73.664C250.814 73.928 251.282 74.294 251.63 74.762C251.978 75.218 252.152 75.818 252.152 76.562C252.152 77.306 251.966 77.954 251.594 78.506C251.222 79.058 250.694 79.49 250.01 79.802C249.338 80.102 248.546 80.252 247.634 80.252ZM257.233 80.252C256.621 80.252 256.063 80.144 255.559 79.928C255.055 79.712 254.659 79.4 254.371 78.992C254.083 78.584 253.939 78.086 253.939 77.498C253.939 76.898 254.083 76.406 254.371 76.022C254.659 75.626 255.055 75.332 255.559 75.14C256.063 74.936 256.627 74.834 257.251 74.834H260.221V74.186C260.221 73.562 260.035 73.07 259.663 72.71C259.303 72.35 258.763 72.17 258.043 72.17C257.335 72.17 256.783 72.344 256.387 72.692C255.991 73.028 255.721 73.484 255.577 74.06L254.245 73.628C254.389 73.136 254.617 72.692 254.929 72.296C255.241 71.888 255.655 71.564 256.171 71.324C256.699 71.072 257.329 70.946 258.061 70.946C259.189 70.946 260.065 71.24 260.689 71.828C261.313 72.404 261.625 73.22 261.625 74.276V78.254C261.625 78.614 261.793 78.794 262.129 78.794H262.939V80H261.697C261.301 80 260.983 79.892 260.743 79.676C260.503 79.448 260.383 79.148 260.383 78.776V78.686H260.167C260.035 78.914 259.855 79.154 259.627 79.406C259.411 79.646 259.111 79.844 258.727 80C258.343 80.168 257.845 80.252 257.233 80.252ZM257.395 79.028C258.235 79.028 258.913 78.782 259.429 78.29C259.957 77.786 260.221 77.084 260.221 76.184V75.986H257.305C256.741 75.986 256.273 76.112 255.901 76.364C255.541 76.604 255.361 76.97 255.361 77.462C255.361 77.954 255.547 78.338 255.919 78.614C256.303 78.89 256.795 79.028 257.395 79.028ZM265.72 83.6V82.34H270.76C271.108 82.34 271.282 82.16 271.282 81.8V78.596H271.03C270.91 78.848 270.724 79.1 270.472 79.352C270.232 79.592 269.914 79.79 269.518 79.946C269.122 80.09 268.624 80.162 268.024 80.162C267.388 80.162 266.8 80.024 266.26 79.748C265.732 79.472 265.312 79.064 265 78.524C264.7 77.984 264.55 77.324 264.55 76.544V71.198H265.972V76.436C265.972 77.3 266.188 77.93 266.62 78.326C267.064 78.722 267.658 78.92 268.402 78.92C269.242 78.92 269.932 78.644 270.472 78.092C271.012 77.54 271.282 76.718 271.282 75.626V71.198H272.704V82.052C272.704 82.532 272.566 82.91 272.29 83.186C272.026 83.462 271.636 83.6 271.12 83.6H265.72ZM280.249 80V67.4H281.761V72.998H287.665V67.4H289.177V80H287.665V74.366H281.761V80H280.249ZM292.115 80V71.198H293.537V80H292.115ZM292.835 69.83C292.523 69.83 292.259 69.728 292.043 69.524C291.839 69.32 291.737 69.062 291.737 68.75C291.737 68.426 291.839 68.162 292.043 67.958C292.259 67.754 292.523 67.652 292.835 67.652C293.147 67.652 293.405 67.754 293.609 67.958C293.813 68.162 293.915 68.426 293.915 68.75C293.915 69.062 293.813 69.32 293.609 69.524C293.405 69.728 293.147 69.83 292.835 69.83Z" fill="black"/>
<rect x="199.5" y="59.5" width="29" height="29" rx="14.5" fill="white" stroke="black"/>
<circle cx="214" cy="74" r="8" fill="#B9FF66"/>
<rect x="330.5" y="59.5" width="29" height="29" rx="14.5" fill="white" stroke="black"/>
<path d="M378.832 80.252C377.896 80.252 377.068 80.06 376.348 79.676C375.64 79.28 375.082 78.704 374.674 77.948C374.278 77.192 374.08 76.256 374.08 75.14V72.26C374.08 70.592 374.524 69.326 375.412 68.462C376.3 67.586 377.494 67.148 378.994 67.148C380.482 67.148 381.616 67.556 382.396 68.372C383.176 69.188 383.566 70.28 383.566 71.648V71.738H382.072V71.612C382.072 71.012 381.964 70.478 381.748 70.01C381.532 69.542 381.196 69.176 380.74 68.912C380.284 68.636 379.702 68.498 378.994 68.498C377.926 68.498 377.092 68.828 376.492 69.488C375.892 70.136 375.592 71.048 375.592 72.224V75.176C375.592 76.352 375.892 77.27 376.492 77.93C377.092 78.578 377.932 78.902 379.012 78.902C380.068 78.902 380.842 78.602 381.334 78.002C381.838 77.402 382.09 76.604 382.09 75.608V75.302H378.274V74.006H383.566V80H382.198V78.632H381.946C381.814 78.896 381.628 79.154 381.388 79.406C381.148 79.658 380.824 79.862 380.416 80.018C380.008 80.174 379.48 80.252 378.832 80.252ZM390.409 80.252C389.521 80.252 388.741 80.066 388.069 79.694C387.397 79.31 386.875 78.776 386.503 78.092C386.131 77.408 385.945 76.616 385.945 75.716V75.5C385.945 74.588 386.131 73.79 386.503 73.106C386.875 72.422 387.391 71.894 388.051 71.522C388.711 71.138 389.467 70.946 390.319 70.946C391.147 70.946 391.879 71.126 392.515 71.486C393.151 71.834 393.649 72.338 394.009 72.998C394.369 73.658 394.549 74.432 394.549 75.32V75.968H387.367C387.403 76.916 387.709 77.66 388.285 78.2C388.861 78.728 389.581 78.992 390.445 78.992C391.201 78.992 391.783 78.818 392.191 78.47C392.599 78.122 392.911 77.708 393.127 77.228L394.351 77.822C394.171 78.194 393.919 78.566 393.595 78.938C393.283 79.31 392.869 79.622 392.353 79.874C391.849 80.126 391.201 80.252 390.409 80.252ZM387.385 74.798H393.109C393.061 73.982 392.779 73.346 392.263 72.89C391.759 72.434 391.111 72.206 390.319 72.206C389.515 72.206 388.855 72.434 388.339 72.89C387.823 73.346 387.505 73.982 387.385 74.798ZM399.918 80C399.414 80 399.024 79.862 398.748 79.586C398.484 79.31 398.352 78.932 398.352 78.452V72.44H395.706V71.198H398.352V68.066H399.774V71.198H402.654V72.44H399.774V78.236C399.774 78.596 399.948 78.776 400.296 78.776H402.258V80H399.918ZM412.28 80.252C411.668 80.252 411.11 80.144 410.606 79.928C410.102 79.712 409.706 79.4 409.418 78.992C409.13 78.584 408.986 78.086 408.986 77.498C408.986 76.898 409.13 76.406 409.418 76.022C409.706 75.626 410.102 75.332 410.606 75.14C411.11 74.936 411.674 74.834 412.298 74.834H415.268V74.186C415.268 73.562 415.082 73.07 414.71 72.71C414.35 72.35 413.81 72.17 413.09 72.17C412.382 72.17 411.83 72.344 411.434 72.692C411.038 73.028 410.768 73.484 410.624 74.06L409.292 73.628C409.436 73.136 409.664 72.692 409.976 72.296C410.288 71.888 410.702 71.564 411.218 71.324C411.746 71.072 412.376 70.946 413.108 70.946C414.236 70.946 415.112 71.24 415.736 71.828C416.36 72.404 416.672 73.22 416.672 74.276V78.254C416.672 78.614 416.84 78.794 417.176 78.794H417.986V80H416.744C416.348 80 416.03 79.892 415.79 79.676C415.55 79.448 415.43 79.148 415.43 78.776V78.686H415.214C415.082 78.914 414.902 79.154 414.674 79.406C414.458 79.646 414.158 79.844 413.774 80C413.39 80.168 412.892 80.252 412.28 80.252ZM412.442 79.028C413.282 79.028 413.96 78.782 414.476 78.29C415.004 77.786 415.268 77.084 415.268 76.184V75.986H412.352C411.788 75.986 411.32 76.112 410.948 76.364C410.588 76.604 410.408 76.97 410.408 77.462C410.408 77.954 410.594 78.338 410.966 78.614C411.35 78.89 411.842 79.028 412.442 79.028ZM429.075 80.252C427.575 80.252 426.375 79.82 425.475 78.956C424.587 78.08 424.143 76.808 424.143 75.14V72.26C424.143 70.592 424.587 69.326 425.475 68.462C426.375 67.586 427.575 67.148 429.075 67.148C430.587 67.148 431.787 67.586 432.675 68.462C433.575 69.326 434.025 70.592 434.025 72.26V75.14C434.025 76.808 433.575 78.08 432.675 78.956C431.787 79.82 430.587 80.252 429.075 80.252ZM429.075 78.902C430.167 78.902 431.013 78.578 431.613 77.93C432.213 77.27 432.513 76.358 432.513 75.194V72.206C432.513 71.042 432.213 70.136 431.613 69.488C431.013 68.828 430.167 68.498 429.075 68.498C427.995 68.498 427.155 68.828 426.555 69.488C425.955 70.136 425.655 71.042 425.655 72.206V75.194C425.655 76.358 425.955 77.27 426.555 77.93C427.155 78.578 427.995 78.902 429.075 78.902ZM429.813 82.916C429.369 82.916 429.009 82.778 428.733 82.502C428.469 82.238 428.337 81.872 428.337 81.404V80H429.813V81.134C429.813 81.494 429.981 81.674 430.317 81.674H431.505V82.916H429.813ZM439.964 80.162C439.328 80.162 438.74 80.024 438.2 79.748C437.672 79.472 437.252 79.064 436.94 78.524C436.64 77.972 436.49 77.306 436.49 76.526V71.198H437.912V76.418C437.912 77.294 438.128 77.93 438.56 78.326C439.004 78.722 439.598 78.92 440.342 78.92C441.182 78.92 441.872 78.644 442.412 78.092C442.952 77.54 443.222 76.718 443.222 75.626V71.198H444.644V80H443.258V78.506H443.006C442.814 78.926 442.484 79.31 442.016 79.658C441.548 79.994 440.864 80.162 439.964 80.162ZM451.687 80.252C450.799 80.252 450.013 80.066 449.329 79.694C448.657 79.322 448.129 78.8 447.745 78.128C447.373 77.444 447.187 76.64 447.187 75.716V75.482C447.187 74.57 447.373 73.772 447.745 73.088C448.129 72.404 448.657 71.876 449.329 71.504C450.013 71.132 450.799 70.946 451.687 70.946C452.575 70.946 453.355 71.132 454.027 71.504C454.711 71.876 455.239 72.404 455.611 73.088C455.995 73.772 456.187 74.57 456.187 75.482V75.716C456.187 76.64 455.995 77.444 455.611 78.128C455.239 78.8 454.711 79.322 454.027 79.694C453.355 80.066 452.575 80.252 451.687 80.252ZM451.687 78.974C452.623 78.974 453.367 78.68 453.919 78.092C454.483 77.492 454.765 76.688 454.765 75.68V75.518C454.765 74.51 454.483 73.712 453.919 73.124C453.367 72.524 452.623 72.224 451.687 72.224C450.763 72.224 450.019 72.524 449.455 73.124C448.891 73.712 448.609 74.51 448.609 75.518V75.68C448.609 76.688 448.891 77.492 449.455 78.092C450.019 78.68 450.763 78.974 451.687 78.974ZM461.634 80C461.13 80 460.74 79.862 460.464 79.586C460.2 79.31 460.068 78.932 460.068 78.452V72.44H457.422V71.198H460.068V68.066H461.49V71.198H464.37V72.44H461.49V78.236C461.49 78.596 461.664 78.776 462.012 78.776H463.974V80H461.634ZM470.389 80.252C469.501 80.252 468.721 80.066 468.049 79.694C467.377 79.31 466.855 78.776 466.483 78.092C466.111 77.408 465.925 76.616 465.925 75.716V75.5C465.925 74.588 466.111 73.79 466.483 73.106C466.855 72.422 467.371 71.894 468.031 71.522C468.691 71.138 469.447 70.946 470.299 70.946C471.127 70.946 471.859 71.126 472.495 71.486C473.131 71.834 473.629 72.338 473.989 72.998C474.349 73.658 474.529 74.432 474.529 75.32V75.968H467.347C467.383 76.916 467.689 77.66 468.265 78.2C468.841 78.728 469.561 78.992 470.425 78.992C471.181 78.992 471.763 78.818 472.171 78.47C472.579 78.122 472.891 77.708 473.107 77.228L474.331 77.822C474.151 78.194 473.899 78.566 473.575 78.938C473.263 79.31 472.849 79.622 472.333 79.874C471.829 80.126 471.181 80.252 470.389 80.252ZM467.365 74.798H473.089C473.041 73.982 472.759 73.346 472.243 72.89C471.739 72.434 471.091 72.206 470.299 72.206C469.495 72.206 468.835 72.434 468.319 72.89C467.803 73.346 467.485 73.982 467.365 74.798Z" fill="black"/>
<path d="M201.28 148V136.8H203.888L207.792 147.152H208V136.8H209.328V148H206.72L202.832 137.632H202.608V148H201.28ZM214.353 148.224C213.809 148.224 213.313 148.128 212.865 147.936C212.417 147.744 212.065 147.467 211.809 147.104C211.553 146.741 211.425 146.299 211.425 145.776C211.425 145.243 211.553 144.805 211.809 144.464C212.065 144.112 212.417 143.851 212.865 143.68C213.313 143.499 213.814 143.408 214.369 143.408H217.009V142.832C217.009 142.277 216.844 141.84 216.513 141.52C216.193 141.2 215.713 141.04 215.073 141.04C214.444 141.04 213.953 141.195 213.601 141.504C213.249 141.803 213.009 142.208 212.881 142.72L211.697 142.336C211.825 141.899 212.028 141.504 212.305 141.152C212.582 140.789 212.95 140.501 213.409 140.288C213.878 140.064 214.438 139.952 215.089 139.952C216.092 139.952 216.87 140.213 217.425 140.736C217.98 141.248 218.257 141.973 218.257 142.912V146.448C218.257 146.768 218.406 146.928 218.705 146.928H219.425V148H218.321C217.969 148 217.686 147.904 217.473 147.712C217.26 147.509 217.153 147.243 217.153 146.912V146.832H216.961C216.844 147.035 216.684 147.248 216.481 147.472C216.289 147.685 216.022 147.861 215.681 148C215.34 148.149 214.897 148.224 214.353 148.224ZM214.497 147.136C215.244 147.136 215.846 146.917 216.305 146.48C216.774 146.032 217.009 145.408 217.009 144.608V144.432H214.417C213.916 144.432 213.5 144.544 213.169 144.768C212.849 144.981 212.689 145.307 212.689 145.744C212.689 146.181 212.854 146.523 213.185 146.768C213.526 147.013 213.964 147.136 214.497 147.136ZM221.156 148V140.176H222.388V141.152H222.612C222.761 140.875 223.007 140.619 223.348 140.384C223.689 140.149 224.169 140.032 224.788 140.032C225.396 140.032 225.887 140.165 226.26 140.432C226.644 140.699 226.921 141.024 227.092 141.408H227.316C227.497 141.024 227.769 140.699 228.132 140.432C228.505 140.165 229.023 140.032 229.684 140.032C230.207 140.032 230.665 140.139 231.06 140.352C231.455 140.565 231.764 140.875 231.988 141.28C232.223 141.675 232.34 142.149 232.34 142.704V148H231.076V142.816C231.076 142.293 230.921 141.883 230.612 141.584C230.313 141.275 229.892 141.12 229.348 141.12C228.772 141.12 228.297 141.307 227.924 141.68C227.561 142.053 227.38 142.592 227.38 143.296V148H226.116V142.816C226.116 142.293 225.961 141.883 225.652 141.584C225.353 141.275 224.932 141.12 224.388 141.12C223.812 141.12 223.337 141.307 222.964 141.68C222.601 142.053 222.42 142.592 222.42 143.296V148H221.156ZM238.506 148.224C237.716 148.224 237.023 148.059 236.426 147.728C235.828 147.387 235.364 146.912 235.034 146.304C234.703 145.696 234.538 144.992 234.538 144.192V144C234.538 143.189 234.703 142.48 235.034 141.872C235.364 141.264 235.823 140.795 236.41 140.464C236.996 140.123 237.668 139.952 238.426 139.952C239.162 139.952 239.812 140.112 240.378 140.432C240.943 140.741 241.386 141.189 241.706 141.776C242.026 142.363 242.186 143.051 242.186 143.84V144.416H235.802C235.834 145.259 236.106 145.92 236.618 146.4C237.13 146.869 237.77 147.104 238.538 147.104C239.21 147.104 239.727 146.949 240.09 146.64C240.452 146.331 240.73 145.963 240.922 145.536L242.01 146.064C241.85 146.395 241.626 146.725 241.338 147.056C241.06 147.387 240.692 147.664 240.234 147.888C239.786 148.112 239.21 148.224 238.506 148.224ZM235.818 143.376H240.906C240.863 142.651 240.612 142.085 240.154 141.68C239.706 141.275 239.13 141.072 238.426 141.072C237.711 141.072 237.124 141.275 236.666 141.68C236.207 142.085 235.924 142.651 235.818 143.376Z" fill="black"/>
<rect x="200.5" y="161.5" width="555" height="58" rx="13.5" fill="white"/>
<rect x="200.5" y="161.5" width="555" height="58" rx="13.5" stroke="black"/>
<path d="M231.44 197V184.4H234.374L238.766 196.046H239V184.4H240.494V197H237.56L233.186 185.336H232.934V197H231.44ZM246.147 197.252C245.535 197.252 244.977 197.144 244.473 196.928C243.969 196.712 243.573 196.4 243.285 195.992C242.997 195.584 242.853 195.086 242.853 194.498C242.853 193.898 242.997 193.406 243.285 193.022C243.573 192.626 243.969 192.332 244.473 192.14C244.977 191.936 245.541 191.834 246.165 191.834H249.135V191.186C249.135 190.562 248.949 190.07 248.577 189.71C248.217 189.35 247.677 189.17 246.957 189.17C246.249 189.17 245.697 189.344 245.301 189.692C244.905 190.028 244.635 190.484 244.491 191.06L243.159 190.628C243.303 190.136 243.531 189.692 243.843 189.296C244.155 188.888 244.569 188.564 245.085 188.324C245.613 188.072 246.243 187.946 246.975 187.946C248.103 187.946 248.979 188.24 249.603 188.828C250.227 189.404 250.539 190.22 250.539 191.276V195.254C250.539 195.614 250.707 195.794 251.043 195.794H251.853V197H250.611C250.215 197 249.897 196.892 249.657 196.676C249.417 196.448 249.297 196.148 249.297 195.776V195.686H249.081C248.949 195.914 248.769 196.154 248.541 196.406C248.325 196.646 248.025 196.844 247.641 197C247.257 197.168 246.759 197.252 246.147 197.252ZM246.309 196.028C247.149 196.028 247.827 195.782 248.343 195.29C248.871 194.786 249.135 194.084 249.135 193.184V192.986H246.219C245.655 192.986 245.187 193.112 244.815 193.364C244.455 193.604 244.275 193.97 244.275 194.462C244.275 194.954 244.461 195.338 244.833 195.614C245.217 195.89 245.709 196.028 246.309 196.028ZM253.801 197V188.198H255.187V189.296H255.439C255.607 188.984 255.883 188.696 256.267 188.432C256.651 188.168 257.191 188.036 257.887 188.036C258.571 188.036 259.123 188.186 259.543 188.486C259.975 188.786 260.287 189.152 260.479 189.584H260.731C260.935 189.152 261.241 188.786 261.649 188.486C262.069 188.186 262.651 188.036 263.395 188.036C263.983 188.036 264.499 188.156 264.943 188.396C265.387 188.636 265.735 188.984 265.987 189.44C266.251 189.884 266.383 190.418 266.383 191.042V197H264.961V191.168C264.961 190.58 264.787 190.118 264.439 189.782C264.103 189.434 263.629 189.26 263.017 189.26C262.369 189.26 261.835 189.47 261.415 189.89C261.007 190.31 260.803 190.916 260.803 191.708V197H259.381V191.168C259.381 190.58 259.207 190.118 258.859 189.782C258.523 189.434 258.049 189.26 257.437 189.26C256.789 189.26 256.255 189.47 255.835 189.89C255.427 190.31 255.223 190.916 255.223 191.708V197H253.801ZM273.319 197.252C272.431 197.252 271.651 197.066 270.979 196.694C270.307 196.31 269.785 195.776 269.413 195.092C269.041 194.408 268.855 193.616 268.855 192.716V192.5C268.855 191.588 269.041 190.79 269.413 190.106C269.785 189.422 270.301 188.894 270.961 188.522C271.621 188.138 272.377 187.946 273.229 187.946C274.057 187.946 274.789 188.126 275.425 188.486C276.061 188.834 276.559 189.338 276.919 189.998C277.279 190.658 277.459 191.432 277.459 192.32V192.968H270.277C270.313 193.916 270.619 194.66 271.195 195.2C271.771 195.728 272.491 195.992 273.355 195.992C274.111 195.992 274.693 195.818 275.101 195.47C275.509 195.122 275.821 194.708 276.037 194.228L277.261 194.822C277.081 195.194 276.829 195.566 276.505 195.938C276.193 196.31 275.779 196.622 275.263 196.874C274.759 197.126 274.111 197.252 273.319 197.252ZM270.295 191.798H276.019C275.971 190.982 275.689 190.346 275.173 189.89C274.669 189.434 274.021 189.206 273.229 189.206C272.425 189.206 271.765 189.434 271.249 189.89C270.733 190.346 270.415 190.982 270.295 191.798Z" fill="#898989"/>
<path d="M201.28 265V253.8H208.176V255.016H202.624V258.76H207.728V259.976H202.624V263.784H208.256V265H201.28ZM210.344 265V257.176H211.576V258.152H211.8C211.949 257.875 212.194 257.619 212.536 257.384C212.877 257.149 213.357 257.032 213.976 257.032C214.584 257.032 215.074 257.165 215.448 257.432C215.832 257.699 216.109 258.024 216.28 258.408H216.504C216.685 258.024 216.957 257.699 217.32 257.432C217.693 257.165 218.21 257.032 218.872 257.032C219.394 257.032 219.853 257.139 220.248 257.352C220.642 257.565 220.952 257.875 221.176 258.28C221.41 258.675 221.528 259.149 221.528 259.704V265H220.264V259.816C220.264 259.293 220.109 258.883 219.8 258.584C219.501 258.275 219.08 258.12 218.536 258.12C217.96 258.12 217.485 258.307 217.112 258.68C216.749 259.053 216.568 259.592 216.568 260.296V265H215.304V259.816C215.304 259.293 215.149 258.883 214.84 258.584C214.541 258.275 214.12 258.12 213.576 258.12C213 258.12 212.525 258.307 212.152 258.68C211.789 259.053 211.608 259.592 211.608 260.296V265H210.344ZM226.509 265.224C225.965 265.224 225.469 265.128 225.021 264.936C224.573 264.744 224.221 264.467 223.965 264.104C223.709 263.741 223.581 263.299 223.581 262.776C223.581 262.243 223.709 261.805 223.965 261.464C224.221 261.112 224.573 260.851 225.021 260.68C225.469 260.499 225.971 260.408 226.525 260.408H229.165V259.832C229.165 259.277 229 258.84 228.669 258.52C228.349 258.2 227.869 258.04 227.229 258.04C226.6 258.04 226.109 258.195 225.757 258.504C225.405 258.803 225.165 259.208 225.037 259.72L223.853 259.336C223.981 258.899 224.184 258.504 224.461 258.152C224.739 257.789 225.107 257.501 225.565 257.288C226.035 257.064 226.595 256.952 227.245 256.952C228.248 256.952 229.027 257.213 229.581 257.736C230.136 258.248 230.413 258.973 230.413 259.912V263.448C230.413 263.768 230.563 263.928 230.861 263.928H231.581V265H230.477C230.125 265 229.843 264.904 229.629 264.712C229.416 264.509 229.309 264.243 229.309 263.912V263.832H229.117C229 264.035 228.84 264.248 228.637 264.472C228.445 264.685 228.179 264.861 227.837 265C227.496 265.149 227.053 265.224 226.509 265.224ZM226.653 264.136C227.4 264.136 228.003 263.917 228.461 263.48C228.931 263.032 229.165 262.408 229.165 261.608V261.432H226.573C226.072 261.432 225.656 261.544 225.325 261.768C225.005 261.981 224.845 262.307 224.845 262.744C224.845 263.181 225.011 263.523 225.341 263.768C225.683 264.013 226.12 264.136 226.653 264.136ZM233.312 265V257.176H234.576V265H233.312ZM233.952 255.96C233.675 255.96 233.44 255.869 233.248 255.688C233.067 255.507 232.976 255.277 232.976 255C232.976 254.712 233.067 254.477 233.248 254.296C233.44 254.115 233.675 254.024 233.952 254.024C234.23 254.024 234.459 254.115 234.64 254.296C234.822 254.477 234.912 254.712 234.912 255C234.912 255.277 234.822 255.507 234.64 255.688C234.459 255.869 234.23 255.96 233.952 255.96ZM237.234 265V253.8H238.498V265H237.234ZM240.58 257.64V256.776H241.94L243.044 256.92L243.124 256.744L242.228 256.072L241.268 255.096L241.876 254.504L242.836 255.464L243.524 256.344L243.7 256.264L243.556 255.16V253.8H244.42V255.16L244.276 256.264L244.452 256.344L245.14 255.464L246.1 254.504L246.708 255.096L245.748 256.072L244.852 256.744L244.932 256.92L246.036 256.776H247.396V257.64H246.036L244.932 257.512L244.852 257.672L245.748 258.36L246.708 259.32L246.1 259.928L245.14 258.968L244.452 258.072L244.276 258.152L244.42 259.256V260.616H243.556V259.256L243.7 258.152L243.524 258.072L242.836 258.968L241.876 259.928L241.268 259.32L242.228 258.36L243.124 257.672L243.044 257.512L241.94 257.64H240.58Z" fill="black"/>
<rect x="200.5" y="278.5" width="555" height="58" rx="13.5" fill="white"/>
<rect x="200.5" y="278.5" width="555" height="58" rx="13.5" stroke="black"/>
<path d="M231.44 314V301.4H239.198V302.768H232.952V306.98H238.694V308.348H232.952V312.632H239.288V314H231.44ZM241.637 314V305.198H243.023V306.296H243.275C243.443 305.984 243.719 305.696 244.103 305.432C244.487 305.168 245.027 305.036 245.723 305.036C246.407 305.036 246.959 305.186 247.379 305.486C247.811 305.786 248.123 306.152 248.315 306.584H248.567C248.771 306.152 249.077 305.786 249.485 305.486C249.905 305.186 250.487 305.036 251.231 305.036C251.819 305.036 252.335 305.156 252.779 305.396C253.223 305.636 253.571 305.984 253.823 306.44C254.087 306.884 254.219 307.418 254.219 308.042V314H252.797V308.168C252.797 307.58 252.623 307.118 252.275 306.782C251.939 306.434 251.465 306.26 250.853 306.26C250.205 306.26 249.671 306.47 249.251 306.89C248.843 307.31 248.639 307.916 248.639 308.708V314H247.217V308.168C247.217 307.58 247.043 307.118 246.695 306.782C246.359 306.434 245.885 306.26 245.273 306.26C244.625 306.26 244.091 306.47 243.671 306.89C243.263 307.31 243.059 307.916 243.059 308.708V314H241.637ZM259.823 314.252C259.211 314.252 258.653 314.144 258.149 313.928C257.645 313.712 257.249 313.4 256.961 312.992C256.673 312.584 256.529 312.086 256.529 311.498C256.529 310.898 256.673 310.406 256.961 310.022C257.249 309.626 257.645 309.332 258.149 309.14C258.653 308.936 259.217 308.834 259.841 308.834H262.811V308.186C262.811 307.562 262.625 307.07 262.253 306.71C261.893 306.35 261.353 306.17 260.633 306.17C259.925 306.17 259.373 306.344 258.977 306.692C258.581 307.028 258.311 307.484 258.167 308.06L256.835 307.628C256.979 307.136 257.207 306.692 257.519 306.296C257.831 305.888 258.245 305.564 258.761 305.324C259.289 305.072 259.919 304.946 260.651 304.946C261.779 304.946 262.655 305.24 263.279 305.828C263.903 306.404 264.215 307.22 264.215 308.276V312.254C264.215 312.614 264.383 312.794 264.719 312.794H265.529V314H264.287C263.891 314 263.573 313.892 263.333 313.676C263.093 313.448 262.973 313.148 262.973 312.776V312.686H262.757C262.625 312.914 262.445 313.154 262.217 313.406C262.001 313.646 261.701 313.844 261.317 314C260.933 314.168 260.435 314.252 259.823 314.252ZM259.985 313.028C260.825 313.028 261.503 312.782 262.019 312.29C262.547 311.786 262.811 311.084 262.811 310.184V309.986H259.895C259.331 309.986 258.863 310.112 258.491 310.364C258.131 310.604 257.951 310.97 257.951 311.462C257.951 311.954 258.137 312.338 258.509 312.614C258.893 312.89 259.385 313.028 259.985 313.028ZM267.476 314V305.198H268.898V314H267.476ZM268.196 303.83C267.884 303.83 267.62 303.728 267.404 303.524C267.2 303.32 267.098 303.062 267.098 302.75C267.098 302.426 267.2 302.162 267.404 301.958C267.62 301.754 267.884 301.652 268.196 301.652C268.508 301.652 268.766 301.754 268.97 301.958C269.174 302.162 269.276 302.426 269.276 302.75C269.276 303.062 269.174 303.32 268.97 303.524C268.766 303.728 268.508 303.83 268.196 303.83ZM271.889 314V301.4H273.311V314H271.889Z" fill="#898989"/>
<path d="M201.28 382V370.8H203.84L206.816 381.152H207.024L210 370.8H212.56V382H211.264V371.68H211.04L208.08 382H205.76L202.8 371.68H202.576V382H201.28ZM218.756 382.224C217.966 382.224 217.273 382.059 216.676 381.728C216.078 381.387 215.614 380.912 215.284 380.304C214.953 379.696 214.788 378.992 214.788 378.192V378C214.788 377.189 214.953 376.48 215.284 375.872C215.614 375.264 216.073 374.795 216.66 374.464C217.246 374.123 217.918 373.952 218.676 373.952C219.412 373.952 220.062 374.112 220.628 374.432C221.193 374.741 221.636 375.189 221.956 375.776C222.276 376.363 222.436 377.051 222.436 377.84V378.416H216.052C216.084 379.259 216.356 379.92 216.868 380.4C217.38 380.869 218.02 381.104 218.788 381.104C219.46 381.104 219.977 380.949 220.34 380.64C220.702 380.331 220.98 379.963 221.172 379.536L222.26 380.064C222.1 380.395 221.876 380.725 221.588 381.056C221.31 381.387 220.942 381.664 220.484 381.888C220.036 382.112 219.46 382.224 218.756 382.224ZM216.068 377.376H221.156C221.113 376.651 220.862 376.085 220.404 375.68C219.956 375.275 219.38 375.072 218.676 375.072C217.961 375.072 217.374 375.275 216.916 375.68C216.457 376.085 216.174 376.651 216.068 377.376ZM227.793 382.224C226.822 382.224 226.001 382 225.329 381.552C224.667 381.104 224.267 380.395 224.129 379.424L225.329 379.152C225.414 379.664 225.574 380.069 225.809 380.368C226.043 380.656 226.331 380.864 226.673 380.992C227.025 381.109 227.398 381.168 227.793 381.168C228.379 381.168 228.843 381.051 229.185 380.816C229.526 380.581 229.697 380.267 229.697 379.872C229.697 379.467 229.531 379.184 229.201 379.024C228.881 378.853 228.438 378.715 227.873 378.608L227.217 378.496C226.715 378.411 226.257 378.277 225.841 378.096C225.425 377.915 225.094 377.669 224.849 377.36C224.603 377.051 224.481 376.661 224.481 376.192C224.481 375.488 224.753 374.939 225.297 374.544C225.841 374.149 226.561 373.952 227.457 373.952C228.342 373.952 229.057 374.155 229.601 374.56C230.155 374.955 230.513 375.515 230.673 376.24L229.489 376.544C229.393 375.979 229.163 375.584 228.801 375.36C228.438 375.125 227.99 375.008 227.457 375.008C226.923 375.008 226.502 375.109 226.193 375.312C225.883 375.504 225.729 375.792 225.729 376.176C225.729 376.549 225.873 376.827 226.161 377.008C226.459 377.179 226.854 377.307 227.345 377.392L228.001 377.504C228.555 377.6 229.051 377.733 229.489 377.904C229.937 378.064 230.289 378.299 230.545 378.608C230.811 378.917 230.945 379.323 230.945 379.824C230.945 380.592 230.657 381.184 230.081 381.6C229.515 382.016 228.753 382.224 227.793 382.224ZM236.23 382.224C235.259 382.224 234.438 382 233.766 381.552C233.105 381.104 232.705 380.395 232.566 379.424L233.766 379.152C233.851 379.664 234.011 380.069 234.246 380.368C234.481 380.656 234.769 380.864 235.11 380.992C235.462 381.109 235.835 381.168 236.23 381.168C236.817 381.168 237.281 381.051 237.622 380.816C237.963 380.581 238.134 380.267 238.134 379.872C238.134 379.467 237.969 379.184 237.638 379.024C237.318 378.853 236.875 378.715 236.31 378.608L235.654 378.496C235.153 378.411 234.694 378.277 234.278 378.096C233.862 377.915 233.531 377.669 233.286 377.36C233.041 377.051 232.918 376.661 232.918 376.192C232.918 375.488 233.19 374.939 233.734 374.544C234.278 374.149 234.998 373.952 235.894 373.952C236.779 373.952 237.494 374.155 238.038 374.56C238.593 374.955 238.95 375.515 239.11 376.24L237.926 376.544C237.83 375.979 237.601 375.584 237.238 375.36C236.875 375.125 236.427 375.008 235.894 375.008C235.361 375.008 234.939 375.109 234.63 375.312C234.321 375.504 234.166 375.792 234.166 376.176C234.166 376.549 234.31 376.827 234.598 377.008C234.897 377.179 235.291 377.307 235.782 377.392L236.438 377.504C236.993 377.6 237.489 377.733 237.926 377.904C238.374 378.064 238.726 378.299 238.982 378.608C239.249 378.917 239.382 379.323 239.382 379.824C239.382 380.592 239.094 381.184 238.518 381.6C237.953 382.016 237.19 382.224 236.23 382.224ZM243.853 382.224C243.309 382.224 242.813 382.128 242.365 381.936C241.917 381.744 241.565 381.467 241.309 381.104C241.053 380.741 240.925 380.299 240.925 379.776C240.925 379.243 241.053 378.805 241.309 378.464C241.565 378.112 241.917 377.851 242.365 377.68C242.813 377.499 243.314 377.408 243.869 377.408H246.509V376.832C246.509 376.277 246.344 375.84 246.013 375.52C245.693 375.2 245.213 375.04 244.573 375.04C243.944 375.04 243.453 375.195 243.101 375.504C242.749 375.803 242.509 376.208 242.381 376.72L241.197 376.336C241.325 375.899 241.528 375.504 241.805 375.152C242.082 374.789 242.45 374.501 242.909 374.288C243.378 374.064 243.938 373.952 244.589 373.952C245.592 373.952 246.37 374.213 246.925 374.736C247.48 375.248 247.757 375.973 247.757 376.912V380.448C247.757 380.768 247.906 380.928 248.205 380.928H248.925V382H247.821C247.469 382 247.186 381.904 246.973 381.712C246.76 381.509 246.653 381.243 246.653 380.912V380.832H246.461C246.344 381.035 246.184 381.248 245.981 381.472C245.789 381.685 245.522 381.861 245.181 382C244.84 382.149 244.397 382.224 243.853 382.224ZM243.997 381.136C244.744 381.136 245.346 380.917 245.805 380.48C246.274 380.032 246.509 379.408 246.509 378.608V378.432H243.917C243.416 378.432 243 378.544 242.669 378.768C242.349 378.981 242.189 379.307 242.189 379.744C242.189 380.181 242.354 380.523 242.685 380.768C243.026 381.013 243.464 381.136 243.997 381.136ZM250.053 378.128V377.904C250.053 377.083 250.219 376.379 250.549 375.792C250.88 375.205 251.328 374.752 251.893 374.432C252.459 374.112 253.077 373.952 253.749 373.952C254.571 373.952 255.2 374.112 255.637 374.432C256.085 374.741 256.416 375.088 256.629 375.472H256.853V374.176H258.053V383.824C258.053 384.251 257.936 384.587 257.701 384.832C257.467 385.077 257.125 385.2 256.677 385.2H251.365V384.08H256.341C256.661 384.08 256.821 383.92 256.821 383.6V380.624H256.597C256.469 380.859 256.288 381.088 256.053 381.312C255.819 381.536 255.515 381.723 255.141 381.872C254.768 382.011 254.304 382.08 253.749 382.08C253.077 382.08 252.459 381.92 251.893 381.6C251.328 381.28 250.88 380.827 250.549 380.24C250.219 379.643 250.053 378.939 250.053 378.128ZM254.085 380.96C254.896 380.96 255.552 380.704 256.053 380.192C256.565 379.68 256.821 378.976 256.821 378.08V377.952C256.821 377.045 256.565 376.341 256.053 375.84C255.552 375.328 254.896 375.072 254.085 375.072C253.285 375.072 252.624 375.328 252.101 375.84C251.589 376.341 251.333 377.045 251.333 377.952V378.08C251.333 378.976 251.589 379.68 252.101 380.192C252.624 380.704 253.285 380.96 254.085 380.96ZM264.287 382.224C263.498 382.224 262.804 382.059 262.207 381.728C261.61 381.387 261.146 380.912 260.815 380.304C260.484 379.696 260.319 378.992 260.319 378.192V378C260.319 377.189 260.484 376.48 260.815 375.872C261.146 375.264 261.604 374.795 262.191 374.464C262.778 374.123 263.45 373.952 264.207 373.952C264.943 373.952 265.594 374.112 266.159 374.432C266.724 374.741 267.167 375.189 267.487 375.776C267.807 376.363 267.967 377.051 267.967 377.84V378.416H261.583C261.615 379.259 261.887 379.92 262.399 380.4C262.911 380.869 263.551 381.104 264.319 381.104C264.991 381.104 265.508 380.949 265.871 380.64C266.234 380.331 266.511 379.963 266.703 379.536L267.791 380.064C267.631 380.395 267.407 380.725 267.119 381.056C266.842 381.387 266.474 381.664 266.015 381.888C265.567 382.112 264.991 382.224 264.287 382.224ZM261.599 377.376H266.687C266.644 376.651 266.394 376.085 265.935 375.68C265.487 375.275 264.911 375.072 264.207 375.072C263.492 375.072 262.906 375.275 262.447 375.68C261.988 376.085 261.706 376.651 261.599 377.376ZM269.596 374.64V373.776H270.956L272.06 373.92L272.14 373.744L271.244 373.072L270.284 372.096L270.892 371.504L271.852 372.464L272.54 373.344L272.716 373.264L272.572 372.16V370.8H273.436V372.16L273.292 373.264L273.468 373.344L274.156 372.464L275.116 371.504L275.724 372.096L274.764 373.072L273.868 373.744L273.948 373.92L275.052 373.776H276.412V374.64H275.052L273.948 374.512L273.868 374.672L274.764 375.36L275.724 376.32L275.116 376.928L274.156 375.968L273.468 375.072L273.292 375.152L273.436 376.256V377.616H272.572V376.256L272.716 375.152L272.54 375.072L271.852 375.968L270.892 376.928L270.284 376.32L271.244 375.36L272.14 374.672L272.06 374.512L270.956 374.64H269.596Z" fill="black"/>
<rect x="200.5" y="395.5" width="555" height="189" rx="13.5" fill="white"/>
<rect x="200.5" y="395.5" width="555" height="189" rx="13.5" stroke="black"/>
<path d="M231.44 431V418.4H234.32L237.668 430.046H237.902L241.25 418.4H244.13V431H242.672V419.39H242.42L239.09 431H236.48L233.15 419.39H232.898V431H231.44ZM251.1 431.252C250.212 431.252 249.432 431.066 248.76 430.694C248.088 430.31 247.566 429.776 247.194 429.092C246.822 428.408 246.636 427.616 246.636 426.716V426.5C246.636 425.588 246.822 424.79 247.194 424.106C247.566 423.422 248.082 422.894 248.742 422.522C249.402 422.138 250.158 421.946 251.01 421.946C251.838 421.946 252.57 422.126 253.206 422.486C253.842 422.834 254.34 423.338 254.7 423.998C255.06 424.658 255.24 425.432 255.24 426.32V426.968H248.058C248.094 427.916 248.4 428.66 248.976 429.2C249.552 429.728 250.272 429.992 251.136 429.992C251.892 429.992 252.474 429.818 252.882 429.47C253.29 429.122 253.602 428.708 253.818 428.228L255.042 428.822C254.862 429.194 254.61 429.566 254.286 429.938C253.974 430.31 253.56 430.622 253.044 430.874C252.54 431.126 251.892 431.252 251.1 431.252ZM248.076 425.798H253.8C253.752 424.982 253.47 424.346 252.954 423.89C252.45 423.434 251.802 423.206 251.01 423.206C250.206 423.206 249.546 423.434 249.03 423.89C248.514 424.346 248.196 424.982 248.076 425.798ZM261.267 431.252C260.175 431.252 259.251 431 258.495 430.496C257.751 429.992 257.301 429.194 257.145 428.102L258.495 427.796C258.591 428.372 258.771 428.828 259.035 429.164C259.299 429.488 259.623 429.722 260.007 429.866C260.403 429.998 260.823 430.064 261.267 430.064C261.927 430.064 262.449 429.932 262.833 429.668C263.217 429.404 263.409 429.05 263.409 428.606C263.409 428.15 263.223 427.832 262.851 427.652C262.491 427.46 261.993 427.304 261.357 427.184L260.619 427.058C260.055 426.962 259.539 426.812 259.071 426.608C258.603 426.404 258.231 426.128 257.955 425.78C257.679 425.432 257.541 424.994 257.541 424.466C257.541 423.674 257.847 423.056 258.459 422.612C259.071 422.168 259.881 421.946 260.889 421.946C261.885 421.946 262.689 422.174 263.301 422.63C263.925 423.074 264.327 423.704 264.507 424.52L263.175 424.862C263.067 424.226 262.809 423.782 262.401 423.53C261.993 423.266 261.489 423.134 260.889 423.134C260.289 423.134 259.815 423.248 259.467 423.476C259.119 423.692 258.945 424.016 258.945 424.448C258.945 424.868 259.107 425.18 259.431 425.384C259.767 425.576 260.211 425.72 260.763 425.816L261.501 425.942C262.125 426.05 262.683 426.2 263.175 426.392C263.679 426.572 264.075 426.836 264.363 427.184C264.663 427.532 264.813 427.988 264.813 428.552C264.813 429.416 264.489 430.082 263.841 430.55C263.205 431.018 262.347 431.252 261.267 431.252ZM270.759 431.252C269.667 431.252 268.743 431 267.987 430.496C267.243 429.992 266.793 429.194 266.637 428.102L267.987 427.796C268.083 428.372 268.263 428.828 268.527 429.164C268.791 429.488 269.115 429.722 269.499 429.866C269.895 429.998 270.315 430.064 270.759 430.064C271.419 430.064 271.941 429.932 272.325 429.668C272.709 429.404 272.901 429.05 272.901 428.606C272.901 428.15 272.715 427.832 272.343 427.652C271.983 427.46 271.485 427.304 270.849 427.184L270.111 427.058C269.547 426.962 269.031 426.812 268.563 426.608C268.095 426.404 267.723 426.128 267.447 425.78C267.171 425.432 267.033 424.994 267.033 424.466C267.033 423.674 267.339 423.056 267.951 422.612C268.563 422.168 269.373 421.946 270.381 421.946C271.377 421.946 272.181 422.174 272.793 422.63C273.417 423.074 273.819 423.704 273.999 424.52L272.667 424.862C272.559 424.226 272.301 423.782 271.893 423.53C271.485 423.266 270.981 423.134 270.381 423.134C269.781 423.134 269.307 423.248 268.959 423.476C268.611 423.692 268.437 424.016 268.437 424.448C268.437 424.868 268.599 425.18 268.923 425.384C269.259 425.576 269.703 425.72 270.255 425.816L270.993 425.942C271.617 426.05 272.175 426.2 272.667 426.392C273.171 426.572 273.567 426.836 273.855 427.184C274.155 427.532 274.305 427.988 274.305 428.552C274.305 429.416 273.981 430.082 273.333 430.55C272.697 431.018 271.839 431.252 270.759 431.252ZM279.335 431.252C278.723 431.252 278.165 431.144 277.661 430.928C277.157 430.712 276.761 430.4 276.473 429.992C276.185 429.584 276.041 429.086 276.041 428.498C276.041 427.898 276.185 427.406 276.473 427.022C276.761 426.626 277.157 426.332 277.661 426.14C278.165 425.936 278.729 425.834 279.353 425.834H282.323V425.186C282.323 424.562 282.137 424.07 281.765 423.71C281.405 423.35 280.865 423.17 280.145 423.17C279.437 423.17 278.885 423.344 278.489 423.692C278.093 424.028 277.823 424.484 277.679 425.06L276.347 424.628C276.491 424.136 276.719 423.692 277.031 423.296C277.343 422.888 277.757 422.564 278.273 422.324C278.801 422.072 279.431 421.946 280.163 421.946C281.291 421.946 282.167 422.24 282.791 422.828C283.415 423.404 283.727 424.22 283.727 425.276V429.254C283.727 429.614 283.895 429.794 284.231 429.794H285.041V431H283.799C283.403 431 283.085 430.892 282.845 430.676C282.605 430.448 282.485 430.148 282.485 429.776V429.686H282.269C282.137 429.914 281.957 430.154 281.729 430.406C281.513 430.646 281.213 430.844 280.829 431C280.445 431.168 279.947 431.252 279.335 431.252ZM279.497 430.028C280.337 430.028 281.015 429.782 281.531 429.29C282.059 428.786 282.323 428.084 282.323 427.184V426.986H279.407C278.843 426.986 278.375 427.112 278.003 427.364C277.643 427.604 277.463 427.97 277.463 428.462C277.463 428.954 277.649 429.338 278.021 429.614C278.405 429.89 278.897 430.028 279.497 430.028ZM286.31 426.644V426.392C286.31 425.468 286.496 424.676 286.868 424.016C287.24 423.356 287.744 422.846 288.38 422.486C289.016 422.126 289.712 421.946 290.468 421.946C291.392 421.946 292.1 422.126 292.592 422.486C293.096 422.834 293.468 423.224 293.708 423.656H293.96V422.198H295.31V433.052C295.31 433.532 295.178 433.91 294.914 434.186C294.65 434.462 294.266 434.6 293.762 434.6H287.786V433.34H293.384C293.744 433.34 293.924 433.16 293.924 432.8V429.452H293.672C293.528 429.716 293.324 429.974 293.06 430.226C292.796 430.478 292.454 430.688 292.034 430.856C291.614 431.012 291.092 431.09 290.468 431.09C289.712 431.09 289.016 430.91 288.38 430.55C287.744 430.19 287.24 429.68 286.868 429.02C286.496 428.348 286.31 427.556 286.31 426.644ZM290.846 429.83C291.758 429.83 292.496 429.542 293.06 428.966C293.636 428.39 293.924 427.598 293.924 426.59V426.446C293.924 425.426 293.636 424.634 293.06 424.07C292.496 423.494 291.758 423.206 290.846 423.206C289.946 423.206 289.202 423.494 288.614 424.07C288.038 424.634 287.75 425.426 287.75 426.446V426.59C287.75 427.598 288.038 428.39 288.614 428.966C289.202 429.542 289.946 429.83 290.846 429.83ZM302.323 431.252C301.435 431.252 300.655 431.066 299.983 430.694C299.311 430.31 298.789 429.776 298.417 429.092C298.045 428.408 297.859 427.616 297.859 426.716V426.5C297.859 425.588 298.045 424.79 298.417 424.106C298.789 423.422 299.305 422.894 299.965 422.522C300.625 422.138 301.381 421.946 302.233 421.946C303.061 421.946 303.793 422.126 304.429 422.486C305.065 422.834 305.563 423.338 305.923 423.998C306.283 424.658 306.463 425.432 306.463 426.32V426.968H299.281C299.317 427.916 299.623 428.66 300.199 429.2C300.775 429.728 301.495 429.992 302.359 429.992C303.115 429.992 303.697 429.818 304.105 429.47C304.513 429.122 304.825 428.708 305.041 428.228L306.265 428.822C306.085 429.194 305.833 429.566 305.509 429.938C305.197 430.31 304.783 430.622 304.267 430.874C303.763 431.126 303.115 431.252 302.323 431.252ZM299.299 425.798H305.023C304.975 424.982 304.693 424.346 304.177 423.89C303.673 423.434 303.025 423.206 302.233 423.206C301.429 423.206 300.769 423.434 300.253 423.89C299.737 424.346 299.419 424.982 299.299 425.798Z" fill="#898989"/>
<rect x="200" y="625" width="556" height="68" rx="14" fill="#191A23"/>
<path d="M414.045 666.28C413.032 666.28 412.125 666.1 411.325 665.74C410.525 665.38 409.892 664.84 409.425 664.12C408.972 663.387 408.745 662.473 408.745 661.38V660.96H410.405V661.38C410.405 662.54 410.745 663.407 411.425 663.98C412.105 664.54 412.978 664.82 414.045 664.82C415.138 664.82 415.972 664.573 416.545 664.08C417.118 663.587 417.405 662.967 417.405 662.22C417.405 661.7 417.272 661.287 417.005 660.98C416.752 660.673 416.392 660.427 415.925 660.24C415.458 660.04 414.912 659.867 414.285 659.72L413.245 659.46C412.432 659.247 411.712 658.987 411.085 658.68C410.458 658.373 409.965 657.973 409.605 657.48C409.258 656.973 409.085 656.327 409.085 655.54C409.085 654.753 409.278 654.073 409.665 653.5C410.065 652.927 410.618 652.487 411.325 652.18C412.045 651.873 412.872 651.72 413.805 651.72C414.752 651.72 415.598 651.887 416.345 652.22C417.105 652.54 417.698 653.02 418.125 653.66C418.565 654.287 418.785 655.08 418.785 656.04V656.88H417.125V656.04C417.125 655.36 416.978 654.813 416.685 654.4C416.405 653.987 416.012 653.68 415.505 653.48C415.012 653.28 414.445 653.18 413.805 653.18C412.885 653.18 412.145 653.387 411.585 653.8C411.025 654.2 410.745 654.773 410.745 655.52C410.745 656.013 410.865 656.413 411.105 656.72C411.345 657.027 411.685 657.28 412.125 657.48C412.565 657.667 413.092 657.833 413.705 657.98L414.745 658.24C415.558 658.413 416.285 658.653 416.925 658.96C417.578 659.253 418.098 659.66 418.485 660.18C418.872 660.687 419.065 661.353 419.065 662.18C419.065 663.007 418.858 663.727 418.445 664.34C418.032 664.953 417.445 665.433 416.685 665.78C415.938 666.113 415.058 666.28 414.045 666.28ZM426.191 666.28C425.204 666.28 424.337 666.073 423.591 665.66C422.844 665.233 422.264 664.64 421.851 663.88C421.437 663.12 421.231 662.24 421.231 661.24V661C421.231 659.987 421.437 659.1 421.851 658.34C422.264 657.58 422.837 656.993 423.571 656.58C424.304 656.153 425.144 655.94 426.091 655.94C427.011 655.94 427.824 656.14 428.531 656.54C429.237 656.927 429.791 657.487 430.191 658.22C430.591 658.953 430.791 659.813 430.791 660.8V661.52H422.811C422.851 662.573 423.191 663.4 423.831 664C424.471 664.587 425.271 664.88 426.231 664.88C427.071 664.88 427.717 664.687 428.171 664.3C428.624 663.913 428.971 663.453 429.211 662.92L430.571 663.58C430.371 663.993 430.091 664.407 429.731 664.82C429.384 665.233 428.924 665.58 428.351 665.86C427.791 666.14 427.071 666.28 426.191 666.28ZM422.831 660.22H429.191C429.137 659.313 428.824 658.607 428.251 658.1C427.691 657.593 426.971 657.34 426.091 657.34C425.197 657.34 424.464 657.593 423.891 658.1C423.317 658.607 422.964 659.313 422.831 660.22ZM433.547 666V656.22H435.087V657.88H435.367C435.58 657.413 435.94 656.993 436.447 656.62C436.967 656.233 437.727 656.04 438.727 656.04C439.46 656.04 440.113 656.193 440.687 656.5C441.273 656.807 441.74 657.26 442.087 657.86C442.433 658.46 442.607 659.2 442.607 660.08V666H441.027V660.2C441.027 659.227 440.78 658.52 440.287 658.08C439.807 657.64 439.153 657.42 438.327 657.42C437.38 657.42 436.607 657.727 436.007 658.34C435.42 658.953 435.127 659.867 435.127 661.08V666H433.547ZM449.952 666.28C449.112 666.28 448.339 666.08 447.632 665.68C446.926 665.28 446.366 664.7 445.952 663.94C445.539 663.18 445.332 662.28 445.332 661.24V660.98C445.332 659.94 445.539 659.047 445.952 658.3C446.366 657.54 446.919 656.96 447.612 656.56C448.319 656.147 449.099 655.94 449.952 655.94C450.632 655.94 451.206 656.033 451.672 656.22C452.152 656.393 452.539 656.62 452.832 656.9C453.126 657.167 453.352 657.453 453.512 657.76H453.792V652H455.372V666H453.832V664.38H453.552C453.286 664.873 452.872 665.313 452.312 665.7C451.752 666.087 450.966 666.28 449.952 666.28ZM450.372 664.88C451.386 664.88 452.206 664.56 452.832 663.92C453.472 663.267 453.792 662.36 453.792 661.2V661.02C453.792 659.86 453.472 658.96 452.832 658.32C452.206 657.667 451.386 657.34 450.372 657.34C449.372 657.34 448.546 657.667 447.892 658.32C447.252 658.96 446.932 659.86 446.932 661.02V661.2C446.932 662.36 447.252 663.267 447.892 663.92C448.546 664.56 449.372 664.88 450.372 664.88ZM463.76 666V652H466.96L470.68 664.94H470.94L474.66 652H477.86V666H476.24V653.1H475.96L472.26 666H469.36L465.66 653.1H465.38V666H463.76ZM485.605 666.28C484.618 666.28 483.752 666.073 483.005 665.66C482.258 665.233 481.678 664.64 481.265 663.88C480.852 663.12 480.645 662.24 480.645 661.24V661C480.645 659.987 480.852 659.1 481.265 658.34C481.678 657.58 482.252 656.993 482.985 656.58C483.718 656.153 484.558 655.94 485.505 655.94C486.425 655.94 487.238 656.14 487.945 656.54C488.652 656.927 489.205 657.487 489.605 658.22C490.005 658.953 490.205 659.813 490.205 660.8V661.52H482.225C482.265 662.573 482.605 663.4 483.245 664C483.885 664.587 484.685 664.88 485.645 664.88C486.485 664.88 487.132 664.687 487.585 664.3C488.038 663.913 488.385 663.453 488.625 662.92L489.985 663.58C489.785 663.993 489.505 664.407 489.145 664.82C488.798 665.233 488.338 665.58 487.765 665.86C487.205 666.14 486.485 666.28 485.605 666.28ZM482.245 660.22H488.605C488.552 659.313 488.238 658.607 487.665 658.1C487.105 657.593 486.385 657.34 485.505 657.34C484.612 657.34 483.878 657.593 483.305 658.1C482.732 658.607 482.378 659.313 482.245 660.22ZM496.901 666.28C495.687 666.28 494.661 666 493.821 665.44C492.994 664.88 492.494 663.993 492.321 662.78L493.821 662.44C493.927 663.08 494.127 663.587 494.421 663.96C494.714 664.32 495.074 664.58 495.501 664.74C495.941 664.887 496.407 664.96 496.901 664.96C497.634 664.96 498.214 664.813 498.641 664.52C499.067 664.227 499.281 663.833 499.281 663.34C499.281 662.833 499.074 662.48 498.661 662.28C498.261 662.067 497.707 661.893 497.001 661.76L496.181 661.62C495.554 661.513 494.981 661.347 494.461 661.12C493.941 660.893 493.527 660.587 493.221 660.2C492.914 659.813 492.761 659.327 492.761 658.74C492.761 657.86 493.101 657.173 493.781 656.68C494.461 656.187 495.361 655.94 496.481 655.94C497.587 655.94 498.481 656.193 499.161 656.7C499.854 657.193 500.301 657.893 500.501 658.8L499.021 659.18C498.901 658.473 498.614 657.98 498.161 657.7C497.707 657.407 497.147 657.26 496.481 657.26C495.814 657.26 495.287 657.387 494.901 657.64C494.514 657.88 494.321 658.24 494.321 658.72C494.321 659.187 494.501 659.533 494.861 659.76C495.234 659.973 495.727 660.133 496.341 660.24L497.161 660.38C497.854 660.5 498.474 660.667 499.021 660.88C499.581 661.08 500.021 661.373 500.341 661.76C500.674 662.147 500.841 662.653 500.841 663.28C500.841 664.24 500.481 664.98 499.761 665.5C499.054 666.02 498.101 666.28 496.901 666.28ZM507.448 666.28C506.234 666.28 505.208 666 504.368 665.44C503.541 664.88 503.041 663.993 502.868 662.78L504.368 662.44C504.474 663.08 504.674 663.587 504.968 663.96C505.261 664.32 505.621 664.58 506.048 664.74C506.488 664.887 506.954 664.96 507.448 664.96C508.181 664.96 508.761 664.813 509.188 664.52C509.614 664.227 509.828 663.833 509.828 663.34C509.828 662.833 509.621 662.48 509.208 662.28C508.808 662.067 508.254 661.893 507.548 661.76L506.728 661.62C506.101 661.513 505.528 661.347 505.008 661.12C504.488 660.893 504.074 660.587 503.768 660.2C503.461 659.813 503.308 659.327 503.308 658.74C503.308 657.86 503.648 657.173 504.328 656.68C505.008 656.187 505.908 655.94 507.028 655.94C508.134 655.94 509.028 656.193 509.708 656.7C510.401 657.193 510.848 657.893 511.048 658.8L509.568 659.18C509.448 658.473 509.161 657.98 508.708 657.7C508.254 657.407 507.694 657.26 507.028 657.26C506.361 657.26 505.834 657.387 505.448 657.64C505.061 657.88 504.868 658.24 504.868 658.72C504.868 659.187 505.048 659.533 505.408 659.76C505.781 659.973 506.274 660.133 506.888 660.24L507.708 660.38C508.401 660.5 509.021 660.667 509.568 660.88C510.128 661.08 510.568 661.373 510.888 661.76C511.221 662.147 511.388 662.653 511.388 663.28C511.388 664.24 511.028 664.98 510.308 665.5C509.601 666.02 508.648 666.28 507.448 666.28ZM516.976 666.28C516.296 666.28 515.676 666.16 515.116 665.92C514.556 665.68 514.116 665.333 513.796 664.88C513.476 664.427 513.316 663.873 513.316 663.22C513.316 662.553 513.476 662.007 513.796 661.58C514.116 661.14 514.556 660.813 515.116 660.6C515.676 660.373 516.303 660.26 516.996 660.26H520.296V659.54C520.296 658.847 520.09 658.3 519.676 657.9C519.276 657.5 518.676 657.3 517.876 657.3C517.09 657.3 516.476 657.493 516.036 657.88C515.596 658.253 515.296 658.76 515.136 659.4L513.656 658.92C513.816 658.373 514.07 657.88 514.416 657.44C514.763 656.987 515.223 656.627 515.796 656.36C516.383 656.08 517.083 655.94 517.896 655.94C519.15 655.94 520.123 656.267 520.816 656.92C521.51 657.56 521.856 658.467 521.856 659.64V664.06C521.856 664.46 522.043 664.66 522.416 664.66H523.316V666H521.936C521.496 666 521.143 665.88 520.876 665.64C520.61 665.387 520.476 665.053 520.476 664.64V664.54H520.236C520.09 664.793 519.89 665.06 519.636 665.34C519.396 665.607 519.063 665.827 518.636 666C518.21 666.187 517.656 666.28 516.976 666.28ZM517.156 664.92C518.09 664.92 518.843 664.647 519.416 664.1C520.003 663.54 520.296 662.76 520.296 661.76V661.54H517.056C516.43 661.54 515.91 661.68 515.496 661.96C515.096 662.227 514.896 662.633 514.896 663.18C514.896 663.727 515.103 664.153 515.516 664.46C515.943 664.767 516.49 664.92 517.156 664.92ZM524.727 661.16V660.88C524.727 659.853 524.934 658.973 525.347 658.24C525.76 657.507 526.32 656.94 527.027 656.54C527.734 656.14 528.507 655.94 529.347 655.94C530.374 655.94 531.16 656.14 531.707 656.54C532.267 656.927 532.68 657.36 532.947 657.84H533.227V656.22H534.727V668.28C534.727 668.813 534.58 669.233 534.287 669.54C533.994 669.847 533.567 670 533.007 670H526.367V668.6H532.587C532.987 668.6 533.187 668.4 533.187 668V664.28H532.907C532.747 664.573 532.52 664.86 532.227 665.14C531.934 665.42 531.554 665.653 531.087 665.84C530.62 666.013 530.04 666.1 529.347 666.1C528.507 666.1 527.734 665.9 527.027 665.5C526.32 665.1 525.76 664.533 525.347 663.8C524.934 663.053 524.727 662.173 524.727 661.16ZM529.767 664.7C530.78 664.7 531.6 664.38 532.227 663.74C532.867 663.1 533.187 662.22 533.187 661.1V660.94C533.187 659.807 532.867 658.927 532.227 658.3C531.6 657.66 530.78 657.34 529.767 657.34C528.767 657.34 527.94 657.66 527.287 658.3C526.647 658.927 526.327 659.807 526.327 660.94V661.1C526.327 662.22 526.647 663.1 527.287 663.74C527.94 664.38 528.767 664.7 529.767 664.7ZM542.519 666.28C541.532 666.28 540.666 666.073 539.919 665.66C539.172 665.233 538.592 664.64 538.179 663.88C537.766 663.12 537.559 662.24 537.559 661.24V661C537.559 659.987 537.766 659.1 538.179 658.34C538.592 657.58 539.166 656.993 539.899 656.58C540.632 656.153 541.472 655.94 542.419 655.94C543.339 655.94 544.152 656.14 544.859 656.54C545.566 656.927 546.119 657.487 546.519 658.22C546.919 658.953 547.119 659.813 547.119 660.8V661.52H539.139C539.179 662.573 539.519 663.4 540.159 664C540.799 664.587 541.599 664.88 542.559 664.88C543.399 664.88 544.046 664.687 544.499 664.3C544.952 663.913 545.299 663.453 545.539 662.92L546.899 663.58C546.699 663.993 546.419 664.407 546.059 664.82C545.712 665.233 545.252 665.58 544.679 665.86C544.119 666.14 543.399 666.28 542.519 666.28ZM539.159 660.22H545.519C545.466 659.313 545.152 658.607 544.579 658.1C544.019 657.593 543.299 657.34 542.419 657.34C541.526 657.34 540.792 657.593 540.219 658.1C539.646 658.607 539.292 659.313 539.159 660.22Z" fill="white"/>
<mask id="mask0_341_624" style="mask-type:alpha" maskUnits="userSpaceOnUse" x="1014" y="62" width="651" height="649">
<mask id="path-18-outside-1_341_624" maskUnits="userSpaceOnUse" x="1014" y="61.5" width="651" height="650" fill="black">
<rect fill="white" x="1014" y="61.5" width="651" height="650"/>
<path d="M1339.93 224.061L1360.36 62.5L1360.2 225.337L1400.73 67.6036L1380.31 229.165L1440.31 77.6514L1399.78 235.545L1478.3 92.6432L1418.13 244.157L1514.04 112.26L1435.37 255.162L1546.92 136.343L1451.17 268.08L1576.76 164.253L1465.05 282.913L1602.78 195.673L1477.02 299.499L1624.64 230.122L1486.91 317.362L1642.04 266.964L1494.41 336.341L1654.65 305.719L1499.52 356.118L1662.31 345.751L1502.08 376.213L1664.86 386.42L1502.08 396.628L1662.31 427.09L1499.52 416.883L1654.65 467.121L1494.41 436.659L1642.04 506.036L1486.91 455.638L1624.64 542.878L1477.02 473.501L1602.78 577.328L1465.05 489.928L1576.76 608.747L1451.17 504.76L1546.92 636.657L1435.37 517.838L1514.04 660.58L1418.13 528.684L1478.3 680.197L1399.78 537.455L1440.31 695.189L1380.31 543.676L1400.73 705.396L1360.2 547.503L1360.36 710.5L1339.93 548.779L1319.5 710.5V547.503L1278.97 705.396L1299.55 543.676L1239.55 695.189L1280.08 537.455L1201.56 680.197L1261.73 528.684L1165.81 660.58L1244.49 517.838L1132.78 636.657L1228.69 504.76L1103.09 608.747L1214.81 489.928L1077.08 577.328L1202.84 473.501L1055.22 542.878L1192.95 455.638L1037.82 506.036L1185.44 436.659L1025.21 467.121L1180.34 416.883L1017.55 427.09L1177.78 396.628L1015 386.42L1177.78 376.213L1017.55 345.751L1180.34 356.118L1025.21 305.719L1185.44 336.341L1037.82 266.964L1192.95 317.362L1055.22 230.122L1202.84 299.499L1077.08 195.673L1214.81 282.913L1103.09 164.253L1228.69 268.08L1132.78 136.343L1244.49 255.162L1165.81 112.26L1261.73 244.157L1201.56 92.6432L1280.08 235.545L1239.55 77.6514L1299.55 229.165L1278.97 67.6036L1319.5 225.337V62.5L1339.93 224.061Z"/>
</mask>
<path d="M1339.93 224.061L1360.36 62.5L1360.2 225.337L1400.73 67.6036L1380.31 229.165L1440.31 77.6514L1399.78 235.545L1478.3 92.6432L1418.13 244.157L1514.04 112.26L1435.37 255.162L1546.92 136.343L1451.17 268.08L1576.76 164.253L1465.05 282.913L1602.78 195.673L1477.02 299.499L1624.64 230.122L1486.91 317.362L1642.04 266.964L1494.41 336.341L1654.65 305.719L1499.52 356.118L1662.31 345.751L1502.08 376.213L1664.86 386.42L1502.08 396.628L1662.31 427.09L1499.52 416.883L1654.65 467.121L1494.41 436.659L1642.04 506.036L1486.91 455.638L1624.64 542.878L1477.02 473.501L1602.78 577.328L1465.05 489.928L1576.76 608.747L1451.17 504.76L1546.92 636.657L1435.37 517.838L1514.04 660.58L1418.13 528.684L1478.3 680.197L1399.78 537.455L1440.31 695.189L1380.31 543.676L1400.73 705.396L1360.2 547.503L1360.36 710.5L1339.93 548.779L1319.5 710.5V547.503L1278.97 705.396L1299.55 543.676L1239.55 695.189L1280.08 537.455L1201.56 680.197L1261.73 528.684L1165.81 660.58L1244.49 517.838L1132.78 636.657L1228.69 504.76L1103.09 608.747L1214.81 489.928L1077.08 577.328L1202.84 473.501L1055.22 542.878L1192.95 455.638L1037.82 506.036L1185.44 436.659L1025.21 467.121L1180.34 416.883L1017.55 427.09L1177.78 396.628L1015 386.42L1177.78 376.213L1017.55 345.751L1180.34 356.118L1025.21 305.719L1185.44 336.341L1037.82 266.964L1192.95 317.362L1055.22 230.122L1202.84 299.499L1077.08 195.673L1214.81 282.913L1103.09 164.253L1228.69 268.08L1132.78 136.343L1244.49 255.162L1165.81 112.26L1261.73 244.157L1201.56 92.6432L1280.08 235.545L1239.55 77.6514L1299.55 229.165L1278.97 67.6036L1319.5 225.337V62.5L1339.93 224.061Z" stroke="black" stroke-width="2" stroke-miterlimit="10" mask="url(#path-18-outside-1_341_624)"/>
</mask>
<g mask="url(#mask0_341_624)">
<rect x="187.568" y="24.3828" width="1152.83" height="702.852" rx="45" fill="black"/>
</g>
<path d="M1068.71 532.096L1114.42 557L1068.71 582.104L1043.71 627.71L1018.71 582.104L972.998 557L1018.71 532.096L1043.71 486.289L1068.71 532.096Z" fill="#B9FF66"/>
<path d="M1190.39 306.065L1272.07 350.566L1190.39 395.425L1145.71 476.922L1101.03 395.425L1019.36 350.566L1101.03 306.065L1145.71 224.211L1190.39 306.065Z" fill="#191A23"/>
</svg>
